<svg width="354" height="469" viewBox="0 0 354 469" fill="none" xmlns="http://www.w3.org/2000/svg">
<path d="M176.681 237.877C176.619 236.96 176.377 236.064 175.968 235.24C175.56 234.417 174.993 233.682 174.301 233.077L163.17 223.377C161.863 222.236 160.178 221.621 158.443 221.653C156.708 221.684 155.046 222.359 153.781 223.547C153.611 223.704 153.45 223.871 153.301 224.047L124.241 257.367L121.061 261.007L72.4404 316.757C71.2244 318.159 70.6132 319.986 70.7407 321.838C70.8682 323.689 71.7239 325.415 73.1206 326.637L84.2407 336.337C85.6409 337.556 87.4671 338.17 89.3191 338.044C91.1711 337.918 92.8977 337.064 94.1206 335.667L121.061 304.777L145.341 276.927L174.971 242.957C175.576 242.265 176.039 241.46 176.333 240.588C176.626 239.716 176.744 238.795 176.681 237.877Z" fill="#F43F5E"/>
<path d="M352.94 175.027L346.181 161.907C345.326 160.261 343.854 159.02 342.087 158.456C340.32 157.892 338.401 158.05 336.751 158.897L281.681 187.287L247.061 205.137L227.411 215.267C226.897 215.531 226.419 215.86 225.991 216.247C225.037 217.076 224.332 218.153 223.951 219.357C223.668 220.233 223.562 221.156 223.639 222.072C223.716 222.989 223.975 223.881 224.4 224.697L227.041 229.827L231.161 237.817C231.581 238.635 232.158 239.362 232.86 239.955C233.562 240.549 234.374 240.998 235.251 241.277C235.947 241.495 236.671 241.606 237.4 241.607C238.511 241.608 239.606 241.34 240.591 240.827L263.931 228.797L294.451 213.057L349.931 184.457C351.577 183.602 352.818 182.13 353.382 180.363C353.946 178.596 353.787 176.678 352.94 175.027Z" fill="#F43F5E"/>
<path d="M294.751 213.687L294.451 213.057L282.63 188.707C281.795 187.052 280.339 185.794 278.581 185.207C277.702 184.914 276.773 184.799 275.849 184.87C274.925 184.94 274.025 185.194 273.201 185.617L244.36 203.097L225.161 214.737C225.015 214.811 224.88 214.905 224.761 215.017C223.661 216.007 223.07 218.547 222.591 220.627C222.42 221.347 222.281 221.977 222.141 222.387C222.091 222.557 222.031 222.737 221.991 222.917C221.591 224.534 221.782 226.24 222.531 227.727L224.891 232.437L229.15 240.917C229.737 242.08 230.634 243.058 231.743 243.741C232.852 244.424 234.128 244.786 235.431 244.787C236.501 244.786 237.556 244.532 238.511 244.047L265.371 233.447L291.63 223.077C293.287 222.243 294.546 220.787 295.13 219.027C295.715 217.267 295.579 215.347 294.751 213.687Z" fill="#2F2E41"/>
<path d="M199.483 176.044C229.041 176.044 253.002 152.083 253.002 122.525C253.002 92.9671 229.041 69.0058 199.483 69.0058C169.925 69.0058 145.964 92.9671 145.964 122.525C145.964 152.083 169.925 176.044 199.483 176.044Z" fill="#F43F5E"/>
<path d="M201.031 336.067C200.979 334.707 200.53 333.393 199.739 332.285C198.948 331.178 197.85 330.327 196.581 329.837C195.775 329.519 194.917 329.356 194.051 329.357H179.291C177.435 329.359 175.655 330.097 174.343 331.41C173.031 332.722 172.293 334.501 172.291 336.357V461.367C172.293 463.223 173.031 465.002 174.343 466.315C175.655 467.627 177.435 468.365 179.291 468.367H194.051C195.907 468.365 197.686 467.627 198.998 466.315C200.311 465.002 201.049 463.223 201.051 461.367V336.357C201.054 336.26 201.048 336.163 201.031 336.067Z" fill="#F43F5E"/>
<path d="M268.091 391.887C267.888 391.41 267.633 390.957 267.331 390.537L242.17 355.337L221.44 326.347H186.081L188.581 329.837L193.031 336.067L206.82 355.347L236.371 396.677L243.94 407.257C245.019 408.766 246.653 409.786 248.483 410.091C250.313 410.397 252.19 409.964 253.701 408.887L265.71 400.297C267.001 399.372 267.94 398.037 268.372 396.509C268.805 394.981 268.705 393.351 268.091 391.887ZM195.791 290.467C194.708 288.959 193.072 287.941 191.24 287.637C189.409 287.333 187.532 287.769 186.021 288.847L174.011 297.427C172.502 298.509 171.484 300.146 171.181 301.977C170.877 303.809 171.312 305.686 172.391 307.197L176.791 313.347H212.15L195.791 290.467Z" fill="#F43F5E"/>
<path d="M268.32 392.227C268.25 392.11 268.173 391.997 268.091 391.887C267.162 390.626 265.94 389.61 264.531 388.927L251.32 382.357C247.86 380.637 244.141 381.057 243.031 383.297L236.371 396.677L208.981 451.697C207.86 453.937 209.771 457.157 213.221 458.877L226.431 465.457C227.742 466.127 229.189 466.489 230.661 466.517C232.521 466.517 234.07 465.827 234.721 464.517L268.771 396.117C269.039 395.485 269.139 394.795 269.06 394.113C268.981 393.431 268.726 392.781 268.32 392.227Z" fill="#F43F5E"/>
<path d="M189.21 221.427L186.991 219.247L185.761 218.017L178.701 211.067C177.514 209.899 175.951 209.191 174.29 209.067C174.1 209.057 173.92 209.047 173.73 209.047C173.31 209.057 172.67 208.997 171.92 208.937C169.551 208.737 166.591 208.477 165.56 209.537L151.89 221.357L123 246.327C121.952 247.385 121.272 248.753 121.06 250.227C121.003 250.581 120.977 250.939 120.98 251.297C120.982 251.615 121.009 251.933 121.06 252.247C121.273 253.762 121.979 255.165 123.07 256.237L124.241 257.367L143.1 275.447C144.423 276.746 146.206 277.469 148.06 277.457C148.87 277.456 149.673 277.311 150.431 277.027C151.408 276.666 152.292 276.092 153.02 275.347L185.89 235.437L188.04 232.827L189.281 231.327C190.582 230.004 191.306 228.219 191.293 226.363C191.28 224.506 190.531 222.732 189.21 221.427Z" fill="#2F2E41"/>
<path d="M192.358 142.361L192.302 140.361C196.023 140.257 199.303 140.024 201.768 138.223C202.467 137.684 203.041 137 203.452 136.219C203.863 135.437 204.101 134.576 204.15 133.695C204.193 133.156 204.111 132.615 203.912 132.113C203.712 131.611 203.399 131.162 202.997 130.8C201.361 129.419 198.728 129.866 196.809 130.746L195.154 131.504L198.327 108.314L200.309 108.586L197.61 128.312C200.217 127.546 202.633 127.876 204.288 129.273C204.923 129.828 205.422 130.522 205.744 131.301C206.067 132.08 206.205 132.924 206.148 133.765C206.09 134.95 205.773 136.107 205.22 137.156C204.667 138.205 203.892 139.121 202.948 139.838C199.781 142.153 195.665 142.268 192.358 142.361Z" fill="#2F2E41"/>
<path d="M220.88 110.287H210.108V112.287H220.88V110.287Z" fill="#2F2E41"/>
<path d="M186.88 110.287H176.108V112.287H186.88V110.287Z" fill="#2F2E41"/>
<path d="M194.527 42.3471C188.592 18.5579 165.588 0.292078 140.938 0.746518C128.735 1.08892 116.967 5.35597 107.38 12.9146C102.547 16.676 98.3864 21.2285 95.0738 26.3792C91.3588 32.1772 89.0261 38.7222 87.2048 45.3282C83.5249 58.6759 81.7905 73.78 72.452 84.6804C68.5798 89.0929 63.8054 92.6227 58.4516 95.0313C53.0978 97.4398 47.2893 98.671 41.4187 98.6416C35.5041 98.5494 29.6912 97.0892 24.4352 94.3752C19.1793 91.6612 14.6231 87.7672 11.1234 82.9982C4.09411 73.6265 0.633423 60.6654 4.69442 49.3549C6.68722 43.8046 10.9723 38.5617 17.1008 37.6364C19.8958 37.2581 22.7403 37.7053 25.2843 38.923C27.8283 40.1407 29.9608 42.0757 31.4191 44.4899C34.1752 49.3259 33.2937 55.7788 29.8408 60.0444C26.2039 64.5373 20.1262 65.7813 14.7658 63.9762C12.2463 63.1198 10.0308 61.548 8.39001 59.4529C7.19131 57.9391 5.06671 60.0614 6.25309 61.5596C8.1544 63.8397 10.6093 65.5936 13.3826 66.6532C16.1559 67.7127 19.1549 68.0426 22.0922 67.611C25.0233 67.1676 27.7764 65.9279 30.0512 64.027C32.3261 62.1261 34.0353 59.6371 34.9925 56.8314C36.0419 54.0497 36.3172 51.0354 35.7891 48.1095C35.261 45.1837 33.9492 42.4558 31.9935 40.2164C29.9557 38.0005 27.3833 36.3447 24.5225 35.4075C21.6616 34.4702 18.6081 34.2829 15.6541 34.8634C9.32604 36.2032 4.73045 41.4078 2.34544 47.175C-0.00463891 53.1665 -0.624657 59.6976 0.556026 66.0243C1.64558 72.1294 4.00872 77.9365 7.4916 83.0677C10.9745 88.1989 15.499 92.5389 20.7706 95.8054C31.4392 102.356 44.7554 103.257 56.4593 99.0495C62.3073 96.9809 67.6483 93.6921 72.1279 89.4013C76.9417 84.5177 80.6259 78.6378 82.9209 72.176C88.1977 58.3598 88.9708 42.8995 96.4371 29.9125C102.95 18.8852 113.222 10.578 125.368 6.51671C137.443 2.34493 150.66 2.97941 162.279 8.28859C173.833 13.6395 183.139 22.8798 188.573 34.3951C189.867 37.201 190.89 40.1238 191.629 43.1239C192.097 45.0006 194.995 44.2219 194.527 42.3471Z" fill="#2F2E41"/>
<path d="M252.371 235.447C251.96 233.867 251.48 232.317 250.931 230.797C247.601 221.503 241.762 213.314 234.06 207.137C233.19 206.427 232.29 205.747 231.36 205.097C226.745 201.842 221.642 199.342 216.241 197.691C216.674 196.147 216.666 194.514 216.22 192.974C215.616 191.033 214.401 189.34 212.756 188.146C211.112 186.952 209.125 186.321 207.093 186.347H194.053C192.016 186.32 190.025 186.952 188.376 188.147C186.726 189.343 185.507 191.04 184.9 192.984C184.455 194.519 184.448 196.148 184.879 197.687C173.932 201.048 164.352 207.831 157.545 217.04C150.738 226.248 147.063 237.396 147.061 248.847V352.52C147.061 359.596 149.75 365.347 153.061 365.347H248.061C248.101 365.347 275.13 365.347 275.17 365.326C278.431 365.219 281.061 359.51 281.061 352.52C281.061 328.585 275.773 294.947 265.575 273.294L254.061 248.847C254.063 244.327 253.495 239.825 252.371 235.447Z" fill="#2F2E41"/>
<path d="M145.561 134.847C138.944 134.847 133.561 126.772 133.561 116.847C133.561 106.922 138.944 98.8472 145.561 98.8472C152.177 98.8472 157.561 106.922 157.561 116.847C157.561 126.772 152.177 134.847 145.561 134.847Z" fill="#3F3D56"/>
<path d="M252.561 134.847C245.944 134.847 240.561 126.772 240.561 116.847C240.561 106.922 245.944 98.8472 252.561 98.8472C259.177 98.8472 264.561 106.922 264.561 116.847C264.561 126.772 259.177 134.847 252.561 134.847Z" fill="#3F3D56"/>
<path d="M255.928 132.032C255.69 132.032 255.455 131.975 255.244 131.866C255.032 131.757 254.849 131.599 254.71 131.406C254.571 131.213 254.48 130.989 254.445 130.753C254.409 130.518 254.431 130.277 254.507 130.052C257.373 121.527 258.236 112.455 257.027 103.542C255.818 94.6298 252.57 86.116 247.535 78.6626C242.501 71.2093 235.816 65.0172 227.999 60.5676C220.183 56.118 211.445 53.5307 202.466 53.0068C193.487 52.4829 184.508 54.0365 176.227 57.5469C167.946 61.0574 160.586 66.43 154.719 73.2473C148.852 80.0646 144.636 88.143 142.399 96.8546C140.162 105.566 139.963 114.676 141.819 123.477C141.9 123.866 141.824 124.271 141.607 124.604C141.389 124.936 141.049 125.169 140.66 125.251C140.272 125.333 139.866 125.257 139.533 125.041C139.2 124.824 138.967 124.485 138.884 124.096C136.931 114.843 137.139 105.265 139.49 96.105C141.842 86.9454 146.274 78.4514 152.442 71.2833C158.61 64.1152 166.349 58.4661 175.055 54.7751C183.762 51.0841 193.202 49.4506 202.643 50.0016C212.084 50.5527 221.27 53.2733 229.488 57.9522C237.706 62.6311 244.735 69.1421 250.027 76.9791C255.32 84.8161 258.733 93.7681 260.003 103.139C261.273 112.51 260.365 122.048 257.349 131.011C257.249 131.308 257.058 131.567 256.803 131.75C256.548 131.933 256.242 132.032 255.928 132.032Z" fill="#3F3D56"/>
<path d="M176.597 80.8493C174.478 83.742 175.523 87.6405 177.756 90.1345C180.661 93.3799 185.294 93.5847 189.317 92.9823C193.832 92.3064 198.62 90.1914 203.19 91.6167C207.086 92.8315 209.865 96.3647 213.912 97.2521C217.501 98.0391 221.792 96.9973 223.051 93.172C223.655 91.3337 220.759 90.5458 220.158 92.3744C219.344 94.8492 215.829 94.7999 213.816 94.1145C210.589 93.0159 208.102 90.3435 204.931 89.0671C201.191 87.5622 197.135 88.2416 193.328 89.0989C189.739 89.9069 185.61 91.1049 182.035 89.5955C179.39 88.4786 177.285 84.9605 179.188 82.3634C180.33 80.8043 177.728 79.306 176.597 80.8493Z" fill="#2F2E41"/>
<path d="M320.541 468.347H104.541C104.276 468.347 104.021 468.242 103.834 468.054C103.646 467.867 103.541 467.612 103.541 467.347C103.541 467.082 103.646 466.828 103.834 466.64C104.021 466.452 104.276 466.347 104.541 466.347H320.541C320.806 466.347 321.06 466.452 321.248 466.64C321.435 466.828 321.541 467.082 321.541 467.347C321.541 467.612 321.435 467.867 321.248 468.054C321.06 468.242 320.806 468.347 320.541 468.347Z" fill="#3F3D56"/>
</svg>
